# AST/ASF file generated using VICON BodyLanguage
# -----------------------------------------------
:version 1.10
:name VICON
:units
  mass 1.0
  length 0.45
  angle deg
:documentation
   .ast/.asf automatically generated from VICON data using
   VICON BodyBuilder and BodyLanguage model FoxedUp or BRILLIANT.MOD
:root
   order TX TY TZ RX RY RZ
   axis XYZ
   position 0 0 0  
   orientation 0 0 0 
:bonedata
  begin
     id 1 
     name lhipjoint
     direction 0.606768 -0.715223 0.346827 
     length 2.41543 
     axis 0 0 0  XYZ
  end
  begin
     id 2 
     name lfemur
     direction 0.34202 -0.939693 0  
     length 7.2778  
     axis 0 0 20  XYZ
    dof rx ry rz
    limits (-160.0 20.0)
           (-70.0 70.0)
           (-60.0 70.0)
  end
  begin
     id 3 
     name ltibia
     direction 0.34202 -0.939693 0   
     length 7.61811   
     axis 0 0 20   XYZ
    dof rx
    limits (-10.0 170.0)
  end
  begin
     id 4 
     name lfoot
     direction 0.0823924 -0.226371 0.97055   
     length 2.33618   
     axis -90 7.62852e-016 20   XYZ
    dof rx rz
    limits (-45.0 90.0)
           (-70.0 20.0)
  end
  begin
     id 5 
     name ltoes
     direction 1.53554e-011 -4.21934e-011 1   
     length 1.17015   
     axis -90 7.62852e-016 20   XYZ
    dof rx
    limits (-90.0 20.0)
  end
  begin
     id 6 
     name rhipjoint
     direction -0.6077 -0.714582 0.346516   
     length 2.4176  
     axis 0 0 0  XYZ 
  end
  begin
     id 7 
     name rfemur
     direction -0.34202 -0.939693 0   
     length 7.28127   
     axis 0 0 -20   XYZ
    dof rx ry rz
    limits (-160.0 20.0)
           (-70.0 70.0)
           (-70.0 60.0)
  end
  begin
     id 8 
     name rtibia
     direction -0.34202 -0.939693 0   
     length 7.77648   
     axis 0 0 -20   XYZ
    dof rx
    limits (-10.0 170.0)
 end
 begin
     id 9 
     name rfoot
     direction -0.0809463 -0.222398 0.97159   
     length 2.37533  
     axis -90 -7.62852e-016 -20   XYZ
    dof rx rz
    limits (-45.0 90.0)
           (-20.0 70.0)
  end
  begin
     id 10 
     name rtoes
     direction -1.53568e-011 -4.21714e-011 1   
     length 1.18972   
     axis -90 -7.62852e-016 -20   XYZ
    dof rx
    limits (-90.0 20.0)
  end
  begin
     id 11 
     name lowerback
     direction 0.010968 0.991932 -0.126297   
     length 2.21698   
     axis 0 0 0   XYZ
    dof rx ry rz
    limits (-20.0 45.0)
           (-30.0 30.0)
           (-30.0 30.0)
  end
  begin
     id 12 
     name upperback
     direction 0.0167007 0.997503 -0.0686276   
     length 2.22371   
     axis 0 0 0   XYZ
    dof rx ry rz
    limits (-20.0 45.0)
           (-30.0 30.0)
           (-30.0 30.0)
  end
  begin
     id 13 
     name thorax
     direction 0.0111721 0.999885 -0.0102878   
     length 2.25242   
     axis 0 0 0   XYZ
    dof rx ry rz
    limits (-20.0 45.0)
           (-30.0 30.0)
           (-30.0 30.0)
  end
  begin
     id 14 
     name lowerneck
     direction -0.0120265 0.990428 0.137508   
     length 1.57674   
     axis 0 0 0   XYZ
    dof rx ry rz
    limits (-20.0 45.0)
           (-30.0 30.0)
           (-30.0 30.0)
  end
  begin
     id 15 
     name upperneck
     direction 0.0175669 0.998907 0.0433089   
     length 1.5618   
     axis 0 0 0   XYZ
    dof rx ry rz
    limits (-20.0 45.0)
           (-30.0 30.0)
           (-30.0 30.0)
  end
  begin
     id 16
     name head
     direction 0.00754609 0.99997 0.00185367  
     length 1.60579  
     axis 0 0 0   XYZ
    dof rx ry rz
    limits (-20.0 45.0)
           (-30.0 30.0)
           (-30.0 30.0)
  end
  begin
     id 17 
     name lclavicle
     direction 0.885866 0.429166 -0.176231  
     length 3.44967  
     axis 0 0 0   XYZ
    dof ry rz
    limits (-20.0 10.0)
           (0.0 20.0)
  end
  begin
     id 18 
     name lhumerus
     direction 1 -4.48973e-011 -1.90255e-027   
     length 5.20607   
     axis 180 -30 -90   XYZ
    dof rx ry rz
    limits (-60.0 90.0)
           (-90.0 90.0)
           (-90.0 90.0)
  end
  begin
     id 19
     name lradius
     direction 1 -4.48956e-011 9.87925e-027   
     length 3.39961   
     axis 180 -30 -90   XYZ
    dof rx
    limits (-10.0 170.0)
  end
  begin
     id 20
     name lwrist
     direction 1 -4.48985e-011 1.73247e-026   
     length 1.6998   
     axis -9.60847e-015 90 90   XYZ
    dof ry
    limits (-180.0 0.0)
 end
  begin
     id 21 
     name lhand
     direction 1 -4.48798e-011 3.46119e-026   
     length 0.519693   
     axis -2.21073e-014 90 90   XYZ
    dof rx rz
    limits (-90.0 90.0)
           (-45.0 45.0)
  end
  begin
     id 22 
     name lfingers
     direction 1 -4.48938e-011 6.92797e-026   
     length 0.41899   
     axis -4.42155e-014 90 90   XYZ
    dof rx
    limits (0.0 90.0)
  end
  begin
     id 23
     name lthumb
     direction 0.707107 -6.34952e-011 0.707107   
     length 0.601588   
     axis -90 45 6.0103e-014   XYZ
    dof rx rz
    limits (-45.0 45.0)
           (-45.0 45.0)
  end
  begin
     id 24 
     name rclavicle
     direction -0.866736 0.456792 -0.200276   
     length 3.45032  
     axis 0 0 0   XYZ 
    dof ry rz
    limits (-10.0 20.0)
           (-20.0 0.0)
  end
  begin
     id 25 
     name rhumerus
     direction -1 -4.4897e-011 8.65094e-028  
     length 5.32214   
     axis 180 30 90   XYZ
    dof rx ry rz
    limits (-90.0 60.0)
           (-90.0 90.0)
           (-90.0 90.0)
  end
  begin
     id 26 
     name rradius
     direction -1 -4.48987e-011 1.08427e-026   
     length 3.51208   
     axis 180 30 90   XYZ
    dof rx
    limits (-10.0 170.0)
  end
  begin
     id 27 
     name rwrist
     direction -1 -4.48961e-011 1.73222e-026   
     length 1.75604   
     axis -9.60847e-015 -90 -90   XYZ
    dof ry
    limits (-180.0 0.0)
  end
  begin
     id 28
     name rhand
     direction -1 -4.48895e-011 3.46314e-026   
     length 0.586681   
     axis -2.21073e-014 -90 -90   XYZ
    dof rx rz
    limits (-90.0 90.0)
           (-45.0 45.0)
  end
  begin
     id 29
     name rfingers
     direction -1 -4.48968e-011 6.92916e-026   
     length 0.472997   
     axis -4.42155e-014 -90 -90   XYZ
    dof rx
    limits (0.0 90.0)
  end
  begin
     id 30
     name rthumb
     direction -0.707107 -6.34848e-011 0.707107   
     length 0.679133   
     axis -90 -45 -6.0103e-014   XYZ
    dof rx rz
    limits (-45.0 45.0)
           (-45.0 45.0)
  end
:hierarchy
  begin
    root lhipjoint rhipjoint lowerback
    lhipjoint lfemur
    lfemur ltibia
    ltibia lfoot
    lfoot ltoes
    rhipjoint rfemur
    rfemur rtibia
    rtibia rfoot
    rfoot rtoes
    lowerback upperback
    upperback thorax
    thorax lowerneck lclavicle rclavicle
    lowerneck upperneck
    upperneck head
    lclavicle lhumerus
    lhumerus lradius
    lradius lwrist
    lwrist lhand lthumb
    lhand lfingers
    rclavicle rhumerus
    rhumerus rradius
    rradius rwrist
    rwrist rhand rthumb
    rhand rfingers
  end

#!OML:ASF H:\Dans Jumps\Project 1\Capture day 1\Session 1\subject.ASF
:FULLY-SPECIFIED
:DEGREES
1
root 0.33713 17.618 -13.7905 7.93209 0.213632 -0.942656
lowerback -1.39734 -0.511205 0.0669476
upperback 3.40902 -0.747747 1.65194
thorax 4.31702 -0.4007 1.62842
lowerneck -10.1676 0.353224 -1.40461
upperneck 30.3357 0.826565 -0.0357716
head 11.5357 0.207835 0.335787
rclavicle 6.26172e-015 -1.31198e-014
rhumerus -24.6629 -20.5876 -76.8927
rradius 24.4855
rwrist 33.141
rhand -20.948 -27.7753
rfingers 7.12502
rthumb 5.42454 -57.6859
lclavicle 6.26172e-015 -1.31198e-014
lhumerus -20.8416 0.0248355 87.8508
lradius 19.9348
lwrist 4.64452
lhand -25.4399 -5.06043
lfingers 7.12502
lthumb 1.08672 24.9165
rfemur -14.834 -2.60627 19.6949
rtibia 21.4029
rfoot -13.346 -2.01666
rtoes 11.425
lfemur -12.8431 6.3286 -18.468
ltibia 17.5429
lfoot -10.8031 4.18465
ltoes 2.22258
2
root 0.337278 17.6171 -13.7876 7.88507 0.204825 -0.948847
lowerback -1.41084 -0.501094 0.0631935
upperback 3.38959 -0.733832 1.64866
thorax 4.30405 -0.393725 1.62776
lowerneck -10.2551 0.363673 -1.39531
upperneck 30.2761 0.83809 -0.0260353
head 11.53 0.215613 0.339368
rclavicle 7.35503e-015 -5.56597e-015
rhumerus -24.6706 -20.6455 -76.8497
rradius 24.4445
rwrist 33.1912
rhand -20.9457 -27.7514
rfingers 7.12502
rthumb 5.42678 -57.6619
lclavicle 7.35503e-015 -5.56597e-015
lhumerus -20.8446 -0.13702 88.005
lradius 19.9316
lwrist 4.71424
lhand -25.622 -5.18188
lfingers 7.12502
lthumb 0.91082 24.7959
rfemur -14.7824 -2.598 19.6977
rtibia 21.4147
rfoot -13.3582 -2.01658
rtoes 11.4571
lfemur -12.7818 6.34829 -18.4555
ltibia 17.5504
lfoot -10.8334 4.18984
ltoes 2.2027
3
root 0.337581 17.6158 -13.7841 7.83719 0.200875 -0.959203
lowerback -1.44138 -0.49567 0.0587211
upperback 3.37206 -0.726631 1.65246
thorax 4.30307 -0.39029 1.63436
lowerneck -10.3769 0.353053 -1.38389
upperneck 30.2471 0.82465 -0.0331313
head 11.5437 0.210008 0.333421
rclavicle -5.46658e-015 1.31198e-014
rhumerus -24.6747 -20.6966 -76.8077
rradius 24.4154
rwrist 33.2464
rhand -20.9616 -27.7974
rfingers 7.12502
rthumb 5.41147 -57.7083
lclavicle -5.46658e-015 1.31198e-014
lhumerus -20.8581 0.0800846 88.0301
lradius 20.0093
lwrist 3.96342
lhand -24.9782 -4.52765
lfingers 7.12502
lthumb 1.53263 25.4466
rfemur -14.7204 -2.60268 19.7078
rtibia 21.4233
rfoot -13.3719 -2.02646
rtoes 11.3254
lfemur -12.7235 6.32841 -18.4362
ltibia 17.5783
lfoot -10.8805 4.23489
ltoes 2.26319
4
root 0.338396 17.6145 -13.7812 7.79351 0.193737 -0.982178
lowerback -1.45926 -0.489735 0.0702328
upperback 3.35654 -0.719236 1.65664
thorax 4.29677 -0.386221 1.63249
lowerneck -10.491 0.345829 -1.41809
upperneck 30.2168 0.810911 0.0111321
head 11.5548 0.205391 0.354299
rclavicle 7.45443e-015 -4.77083e-015
rhumerus -24.662 -20.7365 -76.7875
rradius 24.3712
rwrist 33.3016
rhand -20.9664 -27.8093
rfingers 7.12502
rthumb 5.40679 -57.7203
lclavicle 7.45443e-015 -4.77083e-015
lhumerus -20.9145 -0.300825 88.2437
lradius 20.0594
lwrist 4.71729
lhand -25.4695 -5.07122
lfingers 7.12502
lthumb 1.05809 24.9059
rfemur -14.6672 -2.60093 19.7266
rtibia 21.4335
rfoot -13.3902 -2.01338
rtoes 11.3821
lfemur -12.6726 6.34935 -18.4093
ltibia 17.6014
lfoot -10.9174 4.2398
ltoes 2.20381
5
root 0.3389 17.6133 -13.7781 7.74667 0.182867 -0.996564
lowerback -1.48387 -0.482918 0.0711168
upperback 3.34052 -0.710255 1.65841
thorax 4.29384 -0.381683 1.63413
lowerneck -10.5987 0.342097 -1.43024
upperneck 30.1886 0.80336 0.0344892
head 11.5657 0.203513 0.364386
rclavicle -1.78906e-015 -7.95139e-015
rhumerus -24.658 -20.7793 -76.7616
rradius 24.3335
rwrist 33.3624
rhand -20.9819 -27.8221
rfingers 7.12502
rthumb 5.39181 -57.7335
lclavicle -1.78906e-015 -7.95139e-015
lhumerus -20.9504 -0.4576 88.379
lradius 20.108
lwrist 4.86071
lhand -25.4925 -5.11938
lfingers 7.12502
lthumb 1.03592 24.8578
rfemur -14.6105 -2.5985 19.7379
rtibia 21.4446
rfoot -13.4075 -2.00827
rtoes 11.366
lfemur -12.6185 6.35509 -18.3891
ltibia 17.6291
lfoot -10.9542 4.26171
ltoes 2.18639
6
root 0.33946 17.6119 -13.775 7.69949 0.169357 -1.00862
lowerback -1.51176 -0.476049 0.0695504
upperback 3.32603 -0.701116 1.65864
thorax 4.29436 -0.377136 1.63554
lowerneck -10.7066 0.340032 -1.43446
upperneck 30.1667 0.797911 0.052858
head 11.5791 0.202815 0.37154
rclavicle -3.37934e-015 7.55382e-015
rhumerus -24.6512 -20.8217 -76.7415
rradius 24.2968
rwrist 33.4275
rhand -20.9979 -27.8304
rfingers 7.12502
rthumb 5.37639 -57.7422
lclavicle -3.37934e-015 7.55382e-015
lhumerus -20.9876 -0.622058 88.5087
lradius 20.1576
lwrist 5.01451
lhand -25.4922 -5.15361
lfingers 7.12502
lthumb 1.03619 24.8236
rfemur -14.5539 -2.59718 19.7462
rtibia 21.4568
rfoot -13.4262 -2.00132
rtoes 11.3441
lfemur -12.5632 6.35806 -18.3719
ltibia 17.6548
lfoot -10.9842 4.28669
ltoes 2.16534
7
root 0.340046 17.6105 -13.7719 7.65177 0.153516 -1.01939
lowerback -1.53962 -0.46852 0.0673584
upperback 3.31115 -0.691002 1.65721
thorax 4.29441 -0.372092 1.63565
lowerneck -10.8142 0.338751 -1.4355
upperneck 30.1543 0.793284 0.0699772
head 11.5961 0.202628 0.377819
rclavicle 5.66536e-015 0
rhumerus -24.6464 -20.8661 -76.7251
rradius 24.2631
rwrist 33.4926
rhand -21.0117 -27.8316
rfingers 7.12502
rthumb 5.36303 -57.7437
lclavicle 5.66536e-015 0
lhumerus -21.025 -0.798085 88.6344
lradius 20.2015
lwrist 5.17698
lhand -25.4931 -5.18427
lfingers 7.12502
lthumb 1.0353 24.793
rfemur -14.4982 -2.59711 19.753
rtibia 21.4709
rfoot -13.4459 -1.9911
rtoes 11.3251
lfemur -12.5063 6.35995 -18.3566
ltibia 17.6773
lfoot -11.0065 4.31223
ltoes 2.1408
8
root 0.340689 17.609 -13.7689 7.60405 0.135236 -1.02874
lowerback -1.56775 -0.460391 0.064609
upperback 3.29492 -0.679986 1.65423
thorax 4.29316 -0.366579 1.63451
lowerneck -10.9207 0.338712 -1.43255
upperneck 30.1504 0.790516 0.0838408
head 11.6163 0.203272 0.382467
rclavicle 5.06901e-015 2.78299e-015
rhumerus -24.6448 -20.9133 -76.7106
rradius 24.2323
rwrist 33.5558
rhand -21.0227 -27.8242
rfingers 7.12502
rthumb 5.35242 -57.7366
lclavicle 5.06901e-015 2.78299e-015
lhumerus -21.0604 -0.943805 88.7437
lradius 20.2374
lwrist 5.25631
lhand -25.4346 -5.13292
lfingers 7.12502
lthumb 1.09179 24.844
rfemur -14.443 -2.6005 19.758
rtibia 21.4852
rfoot -13.4669 -1.97624
rtoes 11.302
lfemur -12.4494 6.35788 -18.3434
ltibia 17.6994
lfoot -11.0238 4.34335
ltoes 2.11999
9
root 0.341458 17.6076 -13.7658 7.55675 0.116159 -1.03827
lowerback -1.59578 -0.452514 0.0635675
upperback 3.2785 -0.669334 1.65039
thorax 4.29165 -0.361173 1.63152
lowerneck -11.0281 0.33743 -1.43013
upperneck 30.1527 0.786633 0.0960104
head 11.6392 0.203099 0.386466
rclavicle 3.57812e-015 -9.54166e-015
rhumerus -24.6438 -20.96 -76.7004
rradius 24.2046
rwrist 33.612
rhand -21.0349 -27.8101
rfingers 7.12502
rthumb 5.34068 -57.7228
lclavicle 3.57812e-015 -9.54166e-015
lhumerus -21.0933 -1.07212 88.843
lradius 20.2626
lwrist 5.30369
lhand -25.3777 -5.06616
lfingers 7.12502
lthumb 1.14682 24.9105
rfemur -14.3874 -2.60731 19.7628
rtibia 21.4976
rfoot -13.4879 -1.95719
rtoes 11.2768
lfemur -12.3939 6.35375 -18.3307
ltibia 17.7227
lfoot -11.0397 4.3766
ltoes 2.10459
10
root 0.342335 17.6062 -13.7628 7.51057 0.0951935 -1.05039
lowerback -1.62365 -0.444169 0.0651545
upperback 3.26123 -0.658182 1.64762
thorax 4.28913 -0.355445 1.6282
lowerneck -11.1357 0.334483 -1.43139
upperneck 30.159 0.781564 0.107157
head 11.6638 0.201829 0.390589
rclavicle -3.27995e-015 5.56597e-015
rhumerus -24.6451 -21.0023 -76.6921
rradius 24.1826
rwrist 33.6565
rhand -21.0451 -27.7881
rfingers 7.12502
rthumb 5.33084 -57.7011
lclavicle -3.27995e-015 5.56597e-015
lhumerus -21.1253 -1.1786 88.9344
lradius 20.2766
lwrist 5.32183
lhand -25.3324 -4.98445
lfingers 7.12502
lthumb 1.19058 24.992
rfemur -14.3316 -2.61693 19.77
rtibia 21.5067
rfoot -13.5088 -1.93222
rtoes 11.2608
lfemur -12.3403 6.34754 -18.3156
ltibia 17.7485
lfoot -11.0574 4.41445
ltoes 2.09576
11
root 0.343321 17.6049 -13.7598 7.46541 0.0728748 -1.06703
lowerback -1.6521 -0.436221 0.0711203
upperback 3.244 -0.647791 1.64636
thorax 4.28697 -0.349979 1.62392
lowerneck -11.2447 0.329663 -1.43664
upperneck 30.1701 0.775334 0.116539
head 11.6905 0.19933 0.394622
rclavicle 1.39149e-014 -4.77083e-015
rhumerus -24.6468 -21.0334 -76.6895
rradius 24.1661
rwrist 33.6872
rhand -21.0567 -27.7699
rfingers 7.12502
rthumb 5.31965 -57.6832
lclavicle 1.39149e-014 -4.77083e-015
lhumerus -21.1557 -1.26488 89.0171
lradius 20.2776
lwrist 5.32193
lhand -25.3003 -4.9044
lfingers 7.12502
lthumb 1.22157 25.0718
rfemur -14.2751 -2.62795 19.7818
rtibia 21.5113
rfoot -13.5285 -1.90288
rtoes 11.2508
lfemur -12.2895 6.34324 -18.2963
ltibia 17.7778
lfoot -11.0785 4.45406
ltoes 2.08865
12
root 0.344391 17.6036 -13.7567 7.42102 0.0487182 -1.08778
lowerback -1.68119 -0.429159 0.0792239
upperback 3.22717 -0.638783 1.64777
thorax 4.28565 -0.345187 1.62115
lowerneck -11.3539 0.327038 -1.44025
upperneck 30.1853 0.77334 0.121113
head 11.719 0.198288 0.397155
rclavicle 3.67752e-015 7.55382e-015
rhumerus -24.6494 -21.0464 -76.6931
rradius 24.1597
rwrist 33.7019
rhand -21.0714 -27.7521
rfingers 7.12502
rthumb 5.30544 -57.6657
lclavicle 3.67752e-015 7.55382e-015
lhumerus -21.1867 -1.32581 89.0918
lradius 20.268
lwrist 5.30585
lhand -25.2862 -4.83705
lfingers 7.12502
lthumb 1.23511 25.1391
rfemur -14.2174 -2.63681 19.7977
rtibia 21.5112
rfoot -13.5463 -1.8736
rtoes 11.2352
lfemur -12.2407 6.33993 -18.2727
ltibia 17.8104
lfoot -11.1024 4.49597
ltoes 2.08141
13
root 0.345475 17.6023 -13.7536 7.37629 0.0224733 -1.11284
lowerback -1.7106 -0.423037 0.0893262
upperback 3.21098 -0.631225 1.65177
thorax 4.28524 -0.341104 1.61985
lowerneck -11.466 0.327096 -1.44244
upperneck 30.2071 0.776309 0.121216
head 11.7506 0.199016 0.398471
rclavicle 2.98177e-015 -1.19271e-015
rhumerus -24.6512 -21.0461 -76.7026
rradius 24.1598
rwrist 33.7001
rhand -21.0839 -27.7434
rfingers 7.12502
rthumb 5.29336 -57.6573
lclavicle 2.98177e-015 -1.19271e-015
lhumerus -21.2181 -1.35849 89.157
lradius 20.248
lwrist 5.27841
lhand -25.2901 -4.80808
lfingers 7.12502
lthumb 1.23143 25.1681
rfemur -14.1573 -2.64136 19.818
rtibia 21.5069
rfoot -13.5614 -1.84507
rtoes 11.2185
lfemur -12.1921 6.33964 -18.2443
ltibia 17.8454
lfoot -11.129 4.53916
ltoes 2.06717
